<mxfile host="Electron" modified="2023-09-27T15:59:51.378Z" agent="Mozilla/5.0 (Windows NT 10.0; Win64; x64) AppleWebKit/537.36 (KHTML, like Gecko) draw.io/21.7.5 Chrome/114.0.5735.289 Electron/25.8.1 Safari/537.36" etag="PrZVEP7eKa1hD86-6Fr8" version="21.7.5" type="device">
  <diagram name="Page-1" id="_nZHI8NYuNMjpibNF_YI">
    <mxGraphModel dx="1219" dy="713" grid="1" gridSize="10" guides="1" tooltips="1" connect="1" arrows="1" fold="1" page="1" pageScale="1" pageWidth="850" pageHeight="1100" math="0" shadow="0">
      <root>
        <mxCell id="0" />
        <mxCell id="1" parent="0" />
        <mxCell id="Suc0mTqnFwY24GbRkNt8-1" value="LogController" style="swimlane;fontStyle=0;childLayout=stackLayout;horizontal=1;startSize=26;fillColor=none;horizontalStack=0;resizeParent=1;resizeParentMax=0;resizeLast=0;collapsible=1;marginBottom=0;whiteSpace=wrap;html=1;" parent="1" vertex="1">
          <mxGeometry x="540" y="100" width="140" height="52" as="geometry" />
        </mxCell>
        <mxCell id="Suc0mTqnFwY24GbRkNt8-5" value="UserDAO" style="swimlane;fontStyle=0;childLayout=stackLayout;horizontal=1;startSize=26;fillColor=none;horizontalStack=0;resizeParent=1;resizeParentMax=0;resizeLast=0;collapsible=1;marginBottom=0;whiteSpace=wrap;html=1;" parent="1" vertex="1">
          <mxGeometry x="300" y="240" width="140" height="52" as="geometry" />
        </mxCell>
        <mxCell id="Suc0mTqnFwY24GbRkNt8-6" value="User" style="swimlane;fontStyle=0;childLayout=stackLayout;horizontal=1;startSize=26;fillColor=none;horizontalStack=0;resizeParent=1;resizeParentMax=0;resizeLast=0;collapsible=1;marginBottom=0;whiteSpace=wrap;html=1;" parent="1" vertex="1">
          <mxGeometry x="300" y="360" width="140" height="52" as="geometry" />
        </mxCell>
        <mxCell id="Suc0mTqnFwY24GbRkNt8-7" value="" style="endArrow=open;html=1;rounded=0;exitX=0.5;exitY=1;exitDx=0;exitDy=0;entryX=0.5;entryY=0;entryDx=0;entryDy=0;dashed=1;endFill=0;endSize=6;" parent="1" source="Suc0mTqnFwY24GbRkNt8-1" target="Suc0mTqnFwY24GbRkNt8-5" edge="1">
          <mxGeometry width="50" height="50" relative="1" as="geometry">
            <mxPoint x="400" y="250" as="sourcePoint" />
            <mxPoint x="540" y="210" as="targetPoint" />
            <Array as="points">
              <mxPoint x="610" y="210" />
              <mxPoint x="370" y="210" />
            </Array>
          </mxGeometry>
        </mxCell>
        <mxCell id="Suc0mTqnFwY24GbRkNt8-8" value="" style="endArrow=open;html=1;rounded=0;entryX=0.5;entryY=0;entryDx=0;entryDy=0;dashed=1;endFill=0;endSize=6;exitX=0.5;exitY=1;exitDx=0;exitDy=0;" parent="1" source="Suc0mTqnFwY24GbRkNt8-5" target="Suc0mTqnFwY24GbRkNt8-6" edge="1">
          <mxGeometry width="50" height="50" relative="1" as="geometry">
            <mxPoint x="420" y="290" as="sourcePoint" />
            <mxPoint x="409.5" y="378" as="targetPoint" />
          </mxGeometry>
        </mxCell>
        <mxCell id="AZqF3N3K99mhB0xVApM3-1" value="EmailSender" style="swimlane;fontStyle=0;childLayout=stackLayout;horizontal=1;startSize=26;fillColor=none;horizontalStack=0;resizeParent=1;resizeParentMax=0;resizeLast=0;collapsible=1;marginBottom=0;whiteSpace=wrap;html=1;" parent="1" vertex="1">
          <mxGeometry x="540" y="240" width="140" height="52" as="geometry" />
        </mxCell>
        <mxCell id="AZqF3N3K99mhB0xVApM3-2" value="" style="endArrow=open;html=1;rounded=0;entryX=0.5;entryY=0;entryDx=0;entryDy=0;dashed=1;endFill=0;endSize=6;" parent="1" target="AZqF3N3K99mhB0xVApM3-1" edge="1">
          <mxGeometry width="50" height="50" relative="1" as="geometry">
            <mxPoint x="610" y="210" as="sourcePoint" />
            <mxPoint x="260" y="250" as="targetPoint" />
            <Array as="points" />
          </mxGeometry>
        </mxCell>
        <mxCell id="_8-EYR7Tqebtix7Q3E68-2" value="Generator" style="swimlane;fontStyle=0;childLayout=stackLayout;horizontal=1;startSize=26;fillColor=none;horizontalStack=0;resizeParent=1;resizeParentMax=0;resizeLast=0;collapsible=1;marginBottom=0;whiteSpace=wrap;html=1;" vertex="1" parent="1">
          <mxGeometry x="790" y="240" width="140" height="52" as="geometry" />
        </mxCell>
        <mxCell id="_8-EYR7Tqebtix7Q3E68-3" value="" style="endArrow=open;html=1;rounded=0;entryX=0.5;entryY=0;entryDx=0;entryDy=0;dashed=1;endFill=0;endSize=6;" edge="1" parent="1" target="_8-EYR7Tqebtix7Q3E68-2">
          <mxGeometry width="50" height="50" relative="1" as="geometry">
            <mxPoint x="610" y="210" as="sourcePoint" />
            <mxPoint x="740" y="218" as="targetPoint" />
            <Array as="points">
              <mxPoint x="860" y="210" />
            </Array>
          </mxGeometry>
        </mxCell>
      </root>
    </mxGraphModel>
  </diagram>
</mxfile>
